<svg xmlns="http://www.w3.org/2000/svg" version="1.1" xmlns:xlink="http://www.w3.org/1999/xlink" xmlns:svgjs="http://svgjs.dev/svgjs" width="1500" height="776" viewBox="0 0 1500 776"><g transform="matrix(1,0,0,1,-0.9084522071641459,0.6502059238301285)"><svg viewBox="0 0 396 205" data-background-color="#f9f9f9" preserveAspectRatio="xMidYMid meet" height="776" width="1500" xmlns="http://www.w3.org/2000/svg" xmlns:xlink="http://www.w3.org/1999/xlink"><g id="tight-bounds" transform="matrix(1,0,0,1,0.24008861730862918,-0.17176831750667532)"><svg viewBox="0 0 395.52 205.34353663501335" height="205.34353663501335" width="395.52"><g><svg viewBox="0 0 395.52 205.34353663501335" height="205.34353663501335" width="395.52"><g><svg viewBox="0 0 395.52 205.34353663501335" height="205.34353663501335" width="395.52"><g id="textblocktransform"><svg viewBox="0 0 395.52 205.34353663501335" height="205.34353663501335" width="395.52" id="textblock"><g><svg viewBox="0 0 395.52 205.34353663501335" height="205.34353663501335" width="395.52"><path d="M394.594 44.042C392.735 22.728 387.435 16.802 387.435 16.802 371.165-5.152 350.86-0.42 332.619 2.735 300.414 2.862 268.339 7.552 236.208 10.067 168.767 10.45 100.749 4.141 33.643 19.701 27.339 24.475-6.54 20.639 1.121 46.771 3.129 57.641 10.456 69.705 10.232 79.68 11.236 81.428 12.631 77.421 13.226 79.936 15.309 86.714 18.711 83.517 21.501 87.524 17.614 98.224 20.403 107.133 23.062 116.469 18.377 118.899 12.371 117.748 9.675 125.805 9.396 131.645 7.89 130.537 6.235 130.281 5.026 130.111 2.59 130.75 2.999 132.583 4.394 138.85-1.594 142.473 2.162 148.612-0.422 155.262 3.948 161.017 3.353 168.221 3.278 169.67 3.687 170.907 4.338 171.248 7.22 173.081 3.018 176.662 3.464 180.541 33.029 207.056 65.104 188.726 95.394 200.918 103.259 192.392 97.346 203.944 100.489 202.154 102.943 200.065 104.728 208.719 107.499 203.816 107.927 202.41 107.276 199.085 108.8 199.724 109.6 200.065 110.307 199.98 110.418 198.019 110.586 195.077 109.117 196.91 108.726 195.376 112.947 187.617 111.906 206.076 115.866 205.308 115.68 203.049 114.528 199.809 116.889 200.236 119.232 196.996 119.306 194.31 121.389 201.6 121.463 203.177 121.835 204.285 122.43 205.053 128.938 197.124 135.409 207.866 142.233 204.285 146.417 200.363 150.433 206.417 154.672 204.925 156.16 203.731 157.666 201.6 159.098 205.181 176.632 205.948 195.319 202.751 211.943 205.308 256.364 200.534 303.836 207.269 350.674 200.96 361.719 198.53 373.192 195.077 383.958 192.307 383.958 192.307 392.679 184.719 392.679 150.615S394.538 120.775 394.817 93.62C395.096 66.465 396.398 65.357 394.538 44.042Z" opacity="1" fill="#0d6efd" data-fill-palette-color="tertiary"></path><g transform="matrix(1,0,0,1,55.76832,26.230666666666668)"><svg width="283.98335999999995" viewBox="1.03 -35.69 66.84 35.98" height="152.88220330168002" data-palette-color="#f9f9f9"><path d="M7.57-13.77L7.57-13.77Q7.42-12.11 7.42-9.06 7.42-6.01 8.35-1.66L8.35-1.66 4.49 0.29 2.73-12.99Q1.03-13.23 1.03-14.16L1.03-14.16Q1.03-14.84 1.83-15.77 2.64-16.7 3.03-17.31 3.42-17.92 3.49-18.68 3.56-19.43 3.71-21.39 3.86-23.34 3.98-25.54 4.1-27.73 4.22-29.69 4.35-31.64 4.35-32.42L4.35-32.42Q5.42-33.5 5.91-33.74L5.91-33.74Q7.13-34.38 7.57-33.25L7.57-33.25 7.28-17.87Q19.34-17.87 21.78-19.43L21.78-19.43 21.78-34.86Q22.07-35.69 24.51-35.69L24.51-35.69Q25.05-35.69 25.39-35.64L25.39-35.64Q25.39-34.72 25.46-32.84 25.54-30.96 25.61-28.56 25.68-26.17 25.78-23.51 25.88-20.85 25.98-18.46L25.98-18.46Q26.12-13.48 26.22-11.13L26.22-11.13Q26.56-5.27 28.61-1.66L28.61-1.66Q26.42-0.78 23.78-0.78L23.78-0.78Q21.53-6.35 21.39-15.38L21.39-15.38Q18.16-15.48 16.99-15.48 15.82-15.48 14.36-15.33L14.36-15.33Q11.33-15.14 7.57-13.77ZM67.48-4.39L67.87-0.78Q55.81 0.15 45.7 0.15L45.7 0.15Q31.64 0.15 31.64-1.66L31.64-1.66Q31.64-2.05 32.13-2.44L32.13-2.44 53.22-25.98Q51.27-26.07 50.02-26.07 48.78-26.07 47.21-26.05 45.65-26.03 43.21-25.83L43.21-25.83Q36.03-25.24 33.3-25.1L33.3-25.1Q32.57-25.1 32.39-25.54 32.22-25.98 32.13-27.59L32.13-27.59Q43.02-28.76 56.98-29.25L56.98-29.25Q57.66-29.25 58.3-29.05 58.93-28.86 58.93-28.03L58.93-28.03Q57.57-24.22 49.51-15.63L49.51-15.63Q40.04-5.57 38.52-3.56L38.52-3.56Q41.21-3.03 44.82-3.03 48.44-3.03 52.15-3.25 55.86-3.47 59.86-3.81 63.86-4.15 67.48-4.39L67.48-4.39Z" opacity="1" transform="matrix(1,0,0,1,0,0)" fill="#f9f9f9" class="wordmark-text-0" data-fill-palette-color="quaternary" id="text-0"></path></svg></g></svg></g></svg></g></svg></g><g></g></svg></g><defs></defs></svg><rect width="395.52" height="205.34353663501335" fill="none" stroke="none" visibility="hidden"></rect></g></svg></g></svg>